<svg width="150" height="150" viewBox="0 0 150 150" fill="none" xmlns="http://www.w3.org/2000/svg">
<g clip-path="url(#clip0_6_2)">
<rect width="150" height="150" rx="45" fill="#FAFAFA"/>
<path d="M30.7159 22.0909C30.6307 21.3712 30.285 20.8125 29.679 20.4148C29.0729 20.017 28.3295 19.8182 27.4489 19.8182C26.8049 19.8182 26.2415 19.9223 25.7585 20.1307C25.2803 20.339 24.9063 20.6255 24.6364 20.9901C24.3712 21.3546 24.2386 21.7689 24.2386 22.233C24.2386 22.6212 24.331 22.955 24.5156 23.2344C24.705 23.509 24.9465 23.7386 25.2401 23.9233C25.5336 24.1032 25.8414 24.2524 26.1634 24.3707C26.4853 24.4844 26.7812 24.5767 27.0511 24.6477L28.5284 25.0455C28.9072 25.1449 29.3286 25.2822 29.7926 25.4574C30.2614 25.6326 30.7088 25.8717 31.1349 26.1747C31.5658 26.473 31.9209 26.8565 32.2003 27.3253C32.4796 27.794 32.6193 28.3693 32.6193 29.0511C32.6193 29.8371 32.4134 30.5473 32.0014 31.1818C31.5942 31.8163 30.9976 32.3205 30.2116 32.6946C29.4304 33.0687 28.4811 33.2557 27.3636 33.2557C26.322 33.2557 25.42 33.0876 24.6577 32.7514C23.9001 32.4152 23.3035 31.9465 22.8679 31.3452C22.437 30.7438 22.1932 30.0455 22.1364 29.25H23.9545C24.0019 29.7992 24.1866 30.2538 24.5085 30.6136C24.8352 30.9687 25.2472 31.2339 25.7443 31.4091C26.2462 31.5795 26.786 31.6648 27.3636 31.6648C28.036 31.6648 28.6397 31.5559 29.1747 31.3381C29.7098 31.1155 30.1335 30.8078 30.446 30.4148C30.7585 30.017 30.9148 29.553 30.9148 29.0227C30.9148 28.5398 30.7798 28.1468 30.5099 27.8438C30.2401 27.5407 29.8849 27.2945 29.4446 27.1051C29.0043 26.9157 28.5284 26.75 28.017 26.608L26.2273 26.0966C25.0909 25.7699 24.1913 25.3035 23.5284 24.6974C22.8655 24.0914 22.5341 23.2983 22.5341 22.3182C22.5341 21.5038 22.7543 20.7936 23.1946 20.1875C23.6397 19.5767 24.2363 19.1032 24.9844 18.767C25.7372 18.4261 26.5777 18.2557 27.5057 18.2557C28.4432 18.2557 29.2765 18.4238 30.0057 18.7599C30.7348 19.0914 31.3125 19.5459 31.7386 20.1236C32.1695 20.7012 32.3968 21.357 32.4205 22.0909H30.7159ZM35.5153 33V18.4545H44.2937V20.017H37.2766V24.9318H43.8391V26.4943H37.2766V31.4375H44.4073V33H35.5153ZM46.6729 20.017V18.4545H57.582V20.017H53.0082V33H51.2468V20.017H46.6729ZM60.3004 33V18.4545H69.0788V20.017H62.0618V24.9318H68.6243V26.4943H62.0618V31.4375H69.1925V33H60.3004ZM72.2536 18.4545H74.3558L79.299 30.5284H79.4695L84.4126 18.4545H86.5149V33H84.8672V21.9489H84.7251L80.1797 33H78.5888L74.0433 21.9489H73.9013V33H72.2536V18.4545ZM90.0465 33V18.4545H95.1317C96.145 18.4545 96.9807 18.6297 97.6388 18.9801C98.297 19.3258 98.7871 19.7921 99.109 20.3793C99.431 20.9616 99.592 21.608 99.592 22.3182C99.592 22.9432 99.4807 23.4593 99.2582 23.8665C99.0404 24.2737 98.7515 24.5956 98.3917 24.8324C98.0366 25.0691 97.6507 25.2443 97.234 25.358V25.5C97.6791 25.5284 98.1265 25.6847 98.5763 25.9688C99.0262 26.2528 99.4026 26.66 99.7056 27.1903C100.009 27.7206 100.16 28.3693 100.16 29.1364C100.16 29.8655 99.9944 30.5213 99.663 31.1037C99.3316 31.6861 98.8084 32.1477 98.0934 32.4886C97.3784 32.8295 96.448 33 95.3022 33H90.0465ZM91.8079 31.4375H95.3022C96.4528 31.4375 97.2695 31.215 97.7525 30.7699C98.2402 30.3201 98.484 29.7756 98.484 29.1364C98.484 28.6439 98.3585 28.1894 98.1076 27.7727C97.8567 27.3513 97.4992 27.0152 97.0352 26.7642C96.5711 26.5085 96.0219 26.3807 95.3874 26.3807H91.8079V31.4375ZM91.8079 24.8466H95.0749C95.6052 24.8466 96.0835 24.7424 96.5096 24.5341C96.9405 24.3258 97.2814 24.0322 97.5323 23.6534C97.788 23.2746 97.9158 22.8295 97.9158 22.3182C97.9158 21.679 97.6933 21.1368 97.2482 20.6918C96.8031 20.242 96.0977 20.017 95.1317 20.017H91.8079V24.8466ZM103.054 33V18.4545H107.969C109.105 18.4545 110.038 18.6487 110.767 19.0369C111.497 19.4205 112.036 19.9484 112.387 20.6207C112.737 21.2931 112.912 22.0578 112.912 22.9148C112.912 23.7718 112.737 24.5317 112.387 25.1946C112.036 25.8575 111.499 26.3783 110.775 26.7571C110.05 27.1312 109.124 27.3182 107.998 27.3182H104.02V25.7273H107.941C108.717 25.7273 109.342 25.6136 109.816 25.3864C110.294 25.1591 110.64 24.8371 110.853 24.4205C111.07 23.9991 111.179 23.4972 111.179 22.9148C111.179 22.3324 111.07 21.8234 110.853 21.3878C110.635 20.9522 110.287 20.616 109.809 20.3793C109.33 20.1378 108.698 20.017 107.912 20.017H104.816V33H103.054ZM109.901 26.4659L113.48 33H111.435L107.912 26.4659H109.901ZM128.12 25.7273C128.12 27.2614 127.843 28.5871 127.289 29.7045C126.735 30.822 125.975 31.6837 125.009 32.2898C124.043 32.8958 122.94 33.1989 121.7 33.1989C120.459 33.1989 119.356 32.8958 118.39 32.2898C117.424 31.6837 116.664 30.822 116.11 29.7045C115.556 28.5871 115.279 27.2614 115.279 25.7273C115.279 24.1932 115.556 22.8674 116.11 21.75C116.664 20.6326 117.424 19.7708 118.39 19.1648C119.356 18.5587 120.459 18.2557 121.7 18.2557C122.94 18.2557 124.043 18.5587 125.009 19.1648C125.975 19.7708 126.735 20.6326 127.289 21.75C127.843 22.8674 128.12 24.1932 128.12 25.7273ZM126.415 25.7273C126.415 24.4678 126.205 23.4048 125.783 22.5384C125.367 21.6719 124.801 21.0161 124.086 20.571C123.376 20.1259 122.58 19.9034 121.7 19.9034C120.819 19.9034 120.021 20.1259 119.306 20.571C118.596 21.0161 118.03 21.6719 117.609 22.5384C117.192 23.4048 116.984 24.4678 116.984 25.7273C116.984 26.9867 117.192 28.0497 117.609 28.9162C118.03 29.7827 118.596 30.4384 119.306 30.8835C120.021 31.3286 120.819 31.5511 121.7 31.5511C122.58 31.5511 123.376 31.3286 124.086 30.8835C124.801 30.4384 125.367 29.7827 125.783 28.9162C126.205 28.0497 126.415 26.9867 126.415 25.7273Z" fill="#FC772C"/>
<path d="M24.3182 121V117.761L46.9205 91.7159C50.1477 87.9886 52.7045 84.8295 54.5909 82.2386C56.4773 79.6477 57.8295 77.3068 58.6477 75.2159C59.4659 73.125 59.875 70.9432 59.875 68.6705C59.875 65.8295 59.2045 63.3182 57.8636 61.1364C56.5455 58.9318 54.7386 57.2159 52.4432 55.9886C50.1705 54.7614 47.5795 54.1477 44.6705 54.1477C41.625 54.1477 38.9545 54.8182 36.6591 56.1591C34.3636 57.5 32.5682 59.3182 31.2727 61.6136C30 63.9091 29.3636 66.4886 29.3636 69.3523H25.2386C25.2386 65.7386 26.0795 62.4886 27.7614 59.6023C29.4432 56.7159 31.75 54.4318 34.6818 52.75C37.6364 51.0682 41 50.2273 44.7727 50.2273C48.4773 50.2273 51.7727 51.0341 54.6591 52.6477C57.5455 54.2614 59.8182 56.4659 61.4773 59.2614C63.1364 62.0341 63.9659 65.1705 63.9659 68.6705C63.9659 71.2386 63.5227 73.7159 62.6364 76.1023C61.7727 78.4659 60.2841 81.1136 58.1705 84.0455C56.0568 86.9545 53.1364 90.5455 49.4091 94.8182L30.4545 116.67V117.045H67.1023V121H24.3182ZM80.142 105.318V101.909L111.744 51.1818H114.335V57.7614H112.119L85.2898 100.989V101.364H125.619V105.318H80.142ZM112.46 121V104.159V102.625V51.1818H116.619V121H112.46Z" fill="#3D3D3D"/>
</g>
<defs>
<clipPath id="clip0_6_2">
<rect width="150" height="150" fill="white"/>
</clipPath>
</defs>
</svg>
